<svg width="9" height="9" viewBox="0 0 9 9" fill="none" xmlns="http://www.w3.org/2000/svg">
<g clip-path="url(#clip0_34265_313)">
<path d="M6.59273 3.87723L4.80338 2.48548C4.64635 2.36332 4.45308 2.297 4.25413 2.297C4.05518 2.297 3.86191 2.36332 3.70488 2.48548L1.9152 3.87723C1.80765 3.96087 1.72063 4.06799 1.66079 4.19039C1.60095 4.3128 1.56988 4.44726 1.56995 4.58351V6.99928C1.56995 7.17725 1.64065 7.34793 1.76649 7.47378C1.89234 7.59962 2.06302 7.67032 2.24099 7.67032H6.26727C6.44524 7.67032 6.61593 7.59962 6.74177 7.47378C6.86762 7.34793 6.93832 7.17725 6.93832 6.99928V4.58351C6.93832 4.30737 6.81082 4.04667 6.59273 3.87723Z" fill="#2853AF" stroke="#2853AF" stroke-width="0.503285" stroke-linecap="round" stroke-linejoin="round"/>
<path d="M5.58616 5.98767C4.84466 6.43492 3.64281 6.43492 2.90198 5.98767" stroke="#FEFEFE" stroke-width="0.503285" stroke-linecap="round" stroke-linejoin="round"/>
</g>
<defs>
<clipPath id="clip0_34265_313">
<rect width="8.05256" height="8.05256" fill="white" transform="translate(0.217773 0.954834)"/>
</clipPath>
</defs>
</svg>
